<?xml version="1.0" encoding="utf-8"?><svg xmlns="http://www.w3.org/2000/svg" xmlns:xlink="http://www.w3.org/1999/xlink"><symbol viewBox="0 0 11.07 16.69" id="Group" xmlns="http://www.w3.org/2000/svg"><path d="M11.407 9.429l-8.46 6.74c-.808.641-1.998.065-1.998-.967V1.722c0-1.03 1.19-1.607 1.998-.965l8.46 6.74c.614.492.614 1.44 0 1.933z"/></symbol><symbol viewBox="0 0 24.53 24.53" id="close" xmlns="http://www.w3.org/2000/svg"><path d="M16.267 12L23.2 5.067c1.067-1.067 1.067-2.667 0-3.6l-.533-.534C21.6-.133 20-.133 19.067.933L12 7.733 5.067.8C4-.267 2.4-.267 1.333.8L.8 1.333C-.267 2.4-.267 4 .8 4.933L7.733 12 .8 18.933C-.267 20-.267 21.6.8 22.533l.533.667c1.067 1.067 2.667 1.067 3.6 0L12 16.267l6.933 6.933c1.067 1.067 2.667 1.067 3.6 0l.534-.533c1.066-1.067 1.066-2.667 0-3.6L16.267 12z"/></symbol><symbol viewBox="0 0 24 24" id="fb" xmlns="http://www.w3.org/2000/svg"><path d="M24 22.692c0 .72-.589 1.308-1.308 1.308h-6.147v-9.286h3.139l.458-3.597h-3.597V8.828c0-1.046.261-1.765 1.766-1.765h1.896v-3.27c-.327-.065-1.439-.13-2.812-.13-2.746 0-4.643 1.7-4.643 4.773v2.681H9.613v3.597h3.139V24H1.308C.588 24 0 23.411 0 22.692V1.308C0 .588.589 0 1.308 0h21.384C23.412 0 24 .589 24 1.308v21.384z"/></symbol><symbol viewBox="0 0 24 24" id="insta" xmlns="http://www.w3.org/2000/svg"><path d="M21.123 0H2.877C1.307 0 0 1.243 0 2.812v18.376C0 22.758 1.308 24 2.877 24h18.246C22.693 24 24 22.758 24 21.188V2.812C24 1.242 22.692 0 21.123 0zm-3.859 3.728c0-.393.327-.72.72-.72h2.288c.393 0 .72.327.72.72V5.95c0 .392-.327.72-.72.72H18.05a.726.726 0 01-.72-.72l-.065-2.223zM12.033 7.39c2.55 0 4.643 2.027 4.643 4.577s-2.093 4.578-4.643 4.578-4.643-2.027-4.643-4.578c0-2.485 2.092-4.577 4.643-4.577zm9.678 13.602c0 .392-.327.72-.72.72H3.009a.726.726 0 01-.72-.72V9.744h2.944c-.393.588-.524 1.635-.524 2.289 0 3.989 3.27 7.259 7.325 7.259 4.054 0 7.324-3.27 7.324-7.26 0-.653-.065-1.7-.589-2.288h3.009l-.066 11.248z"/></symbol><symbol viewBox="0 0 38.14 35.71" id="leaf" xmlns="http://www.w3.org/2000/svg"><path d="M5.687 22.47c0 .487.243.973.243 1.458 0 1.944.242 5.102.242 5.102h1.215s0-5.102-.729-7.774c-.728-2.915-.971-8.259.729-12.146l-1.215-.485s-1.457 2.915-1.457 7.53c0 2.915.243 4.13.486 5.344-.972-.729-3.644-3.158-3.401-8.259.486-5.83 5.587-11.174 5.587-11.174s8.988 8.502.972 17.976l.971.728s3.644-4.13 3.644-8.745c0-4.615-1.943-8.502-5.587-11.66 0 0-6.316 6.073-6.802 13.36-.243 6.803 4.859 9.232 4.859 9.232l.243-.486z"/><path d="M18.318 16.155c-8.988 2.672-8.502 11.417-8.259 13.36-3.158 3.158-4.615 6.074-4.615 6.074l.971.485c9.231-15.303 23.563-12.388 23.563-12.388V22.47c-8.745-.972-14.818 2.43-18.947 5.83-.243-3.158 1.214-10.688 10.445-11.417 10.689-.243 15.79 6.073 15.79 6.073-5.587 8.988-11.903 10.202-15.79 10.688-4.13.729-9.23-2.186-9.23-2.186l-.486.972s4.372 2.915 9.96 2.429c12.145-1.458 16.76-12.146 16.76-12.146-1.214-2.43-10.202-8.988-20.162-6.559z"/></symbol><symbol viewBox="0 0 58 73" id="marker" xmlns="http://www.w3.org/2000/svg"><path d="M29 0C18.913 0 0 7.684 0 29.456S29 73 29 73s29-21.772 29-43.544S39.087 0 29 0z"/><path d="M11.096 22.412c0-1.665.504-3.201 1.639-4.354s2.521-1.665 4.16-1.665c1.766 0 3.153.512 4.288 1.537l-.757 1.28c-.378-.384-.883-.64-1.513-.896-.63-.256-1.26-.384-1.765-.384-1.261 0-2.396.384-3.152 1.28-.757.897-1.135 1.922-1.135 3.202 0 1.281.378 2.434 1.135 3.33.756.897 1.89 1.409 3.152 1.409.63 0 1.26-.128 1.891-.384.63-.256 1.135-.64 1.64-1.153l.882 1.153c-1.261 1.28-2.774 1.92-4.413 1.92-1.64 0-3.152-.64-4.287-1.792-1.261-1.28-1.765-2.818-1.765-4.483zm12.356 5.891V16.521h1.64v5.123h6.051V16.52h1.64v11.782h-1.64V23.18h-6.052v5.122h-1.639zm11.6-6.019c0-1.665.504-3.073 1.64-4.226 1.134-1.153 2.521-1.665 4.286-1.665 1.765 0 3.152.512 4.287 1.665 1.135 1.153 1.64 2.561 1.64 4.226 0 1.793-.505 3.202-1.64 4.355-1.135 1.152-2.522 1.793-4.287 1.793-1.765 0-3.152-.64-4.287-1.793-1.009-1.153-1.639-2.562-1.639-4.355zm1.64 0c0 1.281.377 2.434 1.26 3.33.883.897 1.891 1.28 3.026 1.28 1.261 0 2.27-.383 3.026-1.28.757-.896 1.261-2.049 1.261-3.33 0-1.28-.378-2.305-1.26-3.201-.757-.897-1.766-1.281-3.027-1.281-1.26 0-2.27.384-3.026 1.28-.756.897-1.26 1.922-1.26 3.202zM11.6 37.78c0-1.664.504-3.201 1.639-4.354s2.522-1.665 4.16-1.665c1.766 0 3.153.512 4.288 1.537l-.757 1.28c-.378-.383-.882-.64-1.513-.896-.63-.256-1.26-.384-1.765-.384-1.26 0-2.396.384-3.152 1.28-.757.897-1.135 1.922-1.135 3.203 0 1.28.378 2.433 1.135 3.33.756.896 1.891 1.408 3.152 1.408.63 0 1.26-.128 1.891-.384.63-.256 1.135-.64 1.64-1.153l.882 1.153c-1.26 1.28-2.774 1.921-4.413 1.921-1.64 0-3.152-.64-4.287-1.793-1.26-1.28-1.765-2.818-1.765-4.482zm11.474 0c0-1.664.504-3.201 1.639-4.354s2.522-1.665 4.16-1.665c1.766 0 3.153.512 4.288 1.537l-.883 1.28c-.378-.383-.882-.64-1.513-.896-.63-.256-1.26-.384-1.765-.384-1.261 0-2.396.384-3.152 1.28-.757.897-1.135 1.922-1.135 3.203 0 1.28.378 2.433 1.135 3.33.756.896 1.891 1.408 3.152 1.408.63 0 1.26-.128 1.891-.384.63-.256 1.135-.64 1.64-1.153l.882 1.153c-1.26 1.28-2.774 1.921-4.413 1.921-1.765 0-3.152-.64-4.287-1.793-1.135-1.28-1.64-2.818-1.64-4.482zm11.474-.127c0-1.666.504-3.074 1.639-4.227 1.135-1.153 2.522-1.665 4.287-1.665 1.765 0 3.152.512 4.287 1.665 1.135 1.153 1.639 2.561 1.639 4.227 0 1.792-.504 3.201-1.64 4.354-1.134 1.153-2.52 1.793-4.286 1.793-1.765 0-3.152-.64-4.287-1.793-1.135-1.153-1.64-2.562-1.64-4.354zm1.639 0c0 1.28.378 2.433 1.26 3.33.883.896 1.892 1.28 3.027 1.28 1.26 0 2.27-.384 3.026-1.28.757-.897 1.26-2.05 1.26-3.33 0-1.281-.377-2.306-1.26-3.202-.757-.897-1.765-1.281-3.026-1.281s-2.27.384-3.026 1.28c-.883.897-1.261 1.922-1.261 3.203z"/></symbol><symbol viewBox="0 0 36.44 35.71" id="measure" xmlns="http://www.w3.org/2000/svg"><path d="M36.803 16.155a4.354 4.354 0 00-4.372-4.373H10.082s-5.83.243-8.502-4.372c.243-3.4 2.915-5.83 6.316-5.83h9.717c3.643 0 6.315 2.915 6.315 6.316V9.11h1.215v-.97c0-4.373-3.4-7.774-7.773-7.774H8.139C3.766.365.365 3.766.365 8.14v11.417c0 4.372 3.401 7.773 7.774 7.773h1.7v-1.214H7.896c-3.644 0-6.316-2.915-6.316-6.316V9.597c.729.97 3.158 3.4 8.26 3.4h22.59c1.7 0 2.915 1.215 2.915 2.915v1.943c0 1.7-1.215 2.915-2.915 2.915H16.884a4.354 4.354 0 00-4.373 4.373v6.559a4.354 4.354 0 004.373 4.372H32.43a4.354 4.354 0 004.372-4.372V16.155zm-1.457 16.033c0 1.7-1.215 2.915-2.915 2.915H16.64c-1.7 0-2.915-1.215-2.915-2.915v-7.045c0-1.7 1.214-2.915 2.915-2.915h4.615v4.13h1.215v-4.13h7.773v4.13h1.215v-4.13h.972c1.214 0 2.429-.486 3.158-1.215v11.175h-.243z"/></symbol><symbol viewBox="0 0 64.86 68.31" id="person" xmlns="http://www.w3.org/2000/svg"><path d="M62.03 19.665c.69-.69 1.38-1.38 1.725-2.07 2.415-3.105 2.07-4.485-.345-6.555-2.415-2.07-6.21 1.035-6.21 1.035l-.69.69c-3.795-3.45-8.625-6.21-14.145-7.59C40.295 2.07 37.19 0 33.74 0c-3.795 0-6.9 2.415-8.97 5.52-4.485 1.38-8.625 3.795-12.075 6.9-.69-.345-2.07-1.725-3.795-2.07-2.415-.345-4.83 1.38-5.175 3.795 0 1.38 1.38 3.45 3.105 5.52C3.725 24.495 2 30.015 2 36.225 2 53.82 16.49 68.31 34.43 68.31c6.21 0 12.42-1.725 17.25-4.83l-1.035-2.415c-4.485-11.385-3.45-18.63-3.105-22.08 1.035-3.795 4.83-8.97 6.9-11.73 1.38-1.725 3.45-3.45 5.52-5.52 2.76 4.14 4.14 8.97 4.14 14.49 0 7.935-3.45 15.18-8.625 20.7l2.07 1.725c5.865-5.865 9.315-13.8 9.315-22.425 0-6.21-1.725-11.73-4.83-16.56zM33.74 2.76c4.485 0 7.935 4.14 7.935 9.315s-3.45 9.315-7.935 9.315c-4.485 0-7.935-3.795-7.935-9.315s3.45-9.315 7.935-9.315zm0 21.39c5.865 0 10.695-5.52 10.695-12.075 0-1.38-.345-2.415-.69-3.795 4.14 1.38 7.59 3.45 10.695 6.21-2.76 2.415-6.9 5.52-8.97 6.9-3.105 2.415-8.28 4.83-12.42 4.83-4.14 0-6.21-1.725-9.315-3.105-2.76-1.38-7.245-6.555-9.315-8.625 2.76-2.415 5.865-4.14 8.97-5.52 0 1.035-.345 2.07-.345 3.105 0 6.9 4.83 12.075 10.695 12.075zM4.76 36.225c0-5.175 1.38-10.005 3.795-14.49L9.59 22.77s8.625 10.005 10.35 12.42c1.725 2.415-.345 4.14-1.725 10.35-1.035 4.83-1.035 11.385-1.035 14.49C9.59 54.51 4.76 45.885 4.76 36.225zm53.475-16.56c-1.38 1.38-6.21 5.52-10.35 12.075s-3.45 11.73-3.105 15.525c.345 3.795 1.38 7.245 1.725 8.625.345 1.035 1.725 4.83 2.07 5.865-4.14 2.07-8.97 3.45-13.8 3.45-5.52 0-10.35-1.38-14.835-3.795 0-11.73.69-13.455 1.035-15.18 0-1.725 1.035-5.175 2.07-7.935.69-2.415-.345-4.485-1.38-5.52C20.63 31.74 10.625 19.665 8.9 17.25c-2.07-2.415-2.415-3.45-.69-4.14 1.725-1.035 6.21 4.485 8.28 6.9 1.725 2.415 9.66 8.97 16.905 8.625 7.245-.345 12.42-4.14 14.49-5.52 1.725-1.38 10.695-8.625 12.075-9.66 1.38-1.035 3.105 0 2.76 1.035-.345 1.035-3.105 3.795-4.485 5.175z"/></symbol><symbol viewBox="0 0 14 13.78" id="phone" xmlns="http://www.w3.org/2000/svg"><g clip-path="url(#iclip0)"><path d="M13.745 13.092c-.254.502-.763.752-1.272 1.003-.637.376-1.146.5-1.782.5-.891 0-1.782-.375-2.546-.626-.636-.25-1.145-.5-1.781-.751-1.782-1.128-3.819-3.133-4.837-4.762a11.386 11.386 0 01-.89-1.754C.381 5.825 0 5.073 0 4.072c0-.627.127-1.254.51-1.88.254-.501.508-1.003 1.017-1.253.382 0 1.018-.126 1.4-.126h.255c.254.126.382.502.509.752.254.627.636 1.128.89 1.754.255.251.51.502.51.752 0 .627-1.782 1.504-1.782 2.005 0 .25.255.626.382.877 1.018 1.754 2.29 3.007 4.073 4.01.254.125.636.375.89.375.51 0 1.4-1.754 2.037-1.754.254 0 .509.25.763.501.51.376 1.146.627 1.655 1.003.255.125.636.25.764.5v.251c.127.251 0 .877-.127 1.253z"/></g><defs><clipPath id="iclip0"><path transform="translate(0 .813)" d="M0 0h14v13.782H0z"/></clipPath></defs></symbol><symbol viewBox="0 0 12 12" id="phone-green" xmlns="http://www.w3.org/2000/svg"><path d="M11.974 9.298c-.034-.102-.25-.253-.648-.452a19.972 19.972 0 00-.46-.256 32.7 32.7 0 01-.997-.562 11.171 11.171 0 00-.213-.15 2.395 2.395 0 00-.303-.183.558.558 0 00-.242-.06c-.114.001-.256.082-.426.244a4.15 4.15 0 00-.469.528c-.142.19-.293.367-.452.529-.159.162-.29.243-.392.243a.58.58 0 01-.191-.043 1.989 1.989 0 01-.175-.072c-.04-.02-.108-.06-.205-.12a5.297 5.297 0 00-.162-.098 8.956 8.956 0 01-2.002-1.483A8.951 8.951 0 013.154 5.36a4.945 4.945 0 00-.098-.162c-.06-.096-.1-.164-.12-.204a1.848 1.848 0 01-.072-.175.577.577 0 01-.043-.192c0-.102.081-.232.243-.392a4.96 4.96 0 01.529-.451c.19-.142.366-.298.528-.469.162-.17.243-.312.243-.426 0-.08-.02-.16-.06-.243a2.37 2.37 0 00-.183-.302l-.15-.214a18.685 18.685 0 01-.263-.455c-.091-.162-.19-.343-.299-.542a20.244 20.244 0 00-.255-.46c-.2-.397-.35-.613-.452-.647A.477.477 0 002.523 0c-.153 0-.354.028-.6.085a3.375 3.375 0 00-.585.18C1.054.382.753.73.435 1.303.145 1.838 0 2.366 0 2.889a3.291 3.291 0 00.137.938c.05.181.092.316.123.404.031.088.09.246.175.473.085.228.136.367.153.418a7.72 7.72 0 00.708 1.491c.448.728 1.06 1.48 1.836 2.255.776.775 1.527 1.387 2.254 1.836.438.273.935.509 1.492.708.051.017.19.068.417.153.228.085.385.144.473.175.088.031.223.072.405.124a3.272 3.272 0 00.938.136c.522 0 1.05-.145 1.585-.435.574-.318.92-.619 1.04-.903a3.35 3.35 0 00.178-.584c.057-.247.086-.447.086-.6 0-.08-.009-.14-.026-.18z"/></symbol><symbol viewBox="0 0 64 54.24" id="power" xmlns="http://www.w3.org/2000/svg"><path d="M51.937 15.45c-6.027 0-13.776 4.305-13.489 13.201 0 0-11.766-3.73-15.21 8.61 0 0-2.01-4.305-4.592-6.314-2.87-2.008-6.314-7.174-6.601-9.757.287-1.435.574-1.435 1.148-1.722.287 0 .287 2.296 2.87 2.583 2.296-.287 2.87-.861 3.73-2.01l2.584-2.87s2.583-3.443.287-5.165c-2.01-2.01-5.74-5.74-10.332-4.88C9.749 7.702 7.74 9.71 7.74 9.71l-3.444 3.157S2 15.163 2 19.755c0 4.018.861 10.619.861 10.619l1.148 6.887c.287 1.722 2.583 11.767 8.036 17.22 3.444 4.018 5.453 5.74 7.175 6.027 2.87 0 4.305-1.722 6.6-1.722 2.297 0 4.593 1.722 9.471 1.722 4.88 0 15.785-2.87 20.377-16.933C59.973 41.853 66 38.696 66 29.225c0-9.47-8.323-13.775-14.063-13.775zm2.01 26.403C50.788 54.481 40.743 57.925 35.864 58.5c-4.592 0-7.174-1.722-10.618-1.722-2.01 0-4.88 1.722-5.74 1.722-.861 0-3.157-2.009-6.027-5.166-2.87-3.157-4.018-6.027-5.166-8.323-1.148-2.296-3.157-11.48-3.157-11.48s-.861-9.183-.861-13.201c0-3.731 1.722-6.027 1.722-6.027l4.592-4.018c2.583-2.01 5.74-.574 5.74-.574s3.157 2.009 4.305 3.157c1.435 1.148 0 2.296 0 2.296s-3.157 4.018-4.305 4.305c-1.435.287-1.722-3.157-1.722-3.157-1.435.574-3.731 1.148-4.592 3.73-.861 3.158 3.73 9.758 7.175 12.915 3.157 3.157 5.166 8.323 5.166 8.323l2.583-.86s-.287-6.028 4.879-9.184c5.74-3.157 10.905 1.148 10.905 1.148-1.722-14.35 10.906-14.637 11.767-14.637.861 0 10.906.86 11.767 10.905-.574 11.48-10.332 13.202-10.332 13.202z"/></symbol><symbol viewBox="0 0 64 64" id="smile" xmlns="http://www.w3.org/2000/svg"><path d="M32 0C14.431 0 0 14.431 0 32c0 17.569 14.431 32 32 32 17.569 0 32-14.431 32-32C64 14.431 49.569 0 32 0zm0 61.49C15.686 61.49 2.51 48.314 2.51 32S15.686 2.51 32 2.51 61.49 15.686 61.49 32 48.314 61.49 32 61.49z"/><path d="M32 48.627c-10.98 0-17.569-9.725-17.569-9.725l-2.196 1.569C21.02 51.765 32 51.45 32 51.45s10.98.627 19.765-10.98l-2.196-1.569S42.98 48.627 32 48.627zM21.333 35.451c7.53-3.451 8.785-7.843 8.785-10.04 0-2.509-1.569-5.333-4.392-5.333-3.138 0-4.393 1.57-4.393 1.57s-1.255-1.57-4.392-1.57c-2.823 0-4.392 3.138-4.392 5.334 0 2.196 1.255 6.588 8.784 10.039zm0-10.667c1.569-2.51 5.961-2.823 6.275.314 0 4.392-6.275 7.53-6.275 7.53s-6.274-3.138-6.274-7.53c.314-3.137 4.706-2.823 6.274-.314zm21.334 10.667c7.53-3.451 8.784-7.843 8.784-9.726 0-2.51-1.569-5.333-4.392-5.333-3.137 0-4.392 1.569-4.392 1.569s-1.255-1.569-4.392-1.569c-2.824 0-4.393 3.137-4.393 5.334 0 1.882 1.255 6.274 8.785 9.725zm0-10.667c1.568-2.51 5.96-2.823 6.274.314 0 4.392-6.274 7.53-6.274 7.53s-6.275-3.138-6.275-7.53c.314-3.137 4.706-2.823 6.275-.314z"/></symbol><symbol viewBox="0 0 39.38 30.95" id="truck" xmlns="http://www.w3.org/2000/svg"><path d="M39.74 24.319v-6.925c0-2.164-.865-3.03-.865-3.03s-2.164-2.813-3.462-4.544c-1.299-1.732-3.03-1.732-3.03-1.732h-7.358V7.006c0-1.514-1.082-2.596-2.596-2.596h-6.276C14.638 2.246 12.04.73 9.228.73 4.468.73.788 4.627.788 9.388c0 1.947.65 3.679 1.732 5.193v9.522c0 1.515 1.082 2.597 2.596 2.597h1.082v.216c0 2.597 2.164 4.761 4.761 4.761s4.761-2.164 4.761-4.76V26.7h10.82v.216c0 2.597 2.164 4.761 4.761 4.761s4.76-2.164 4.76-4.76V26.7h.434c3.678.216 3.246-2.38 3.246-2.38zm-1.081-7.575v.65h-8.44c-.433 0-.866-.433-.866-.866v-3.462c0-.433.433-.866.866-.866h5.626c.65.65 1.299 1.515 1.732 2.164 1.082 1.298 1.082 2.38 1.082 2.38zM9.229 2.03c4.11 0 7.573 3.246 7.573 7.574 0 4.328-3.462 7.358-7.574 7.358S1.87 13.498 1.87 9.387c0-4.112 3.246-7.358 7.358-7.358zm1.514 28.565c-1.948 0-3.463-1.515-3.463-3.462 0-1.948 1.515-3.463 3.463-3.463 1.947 0 3.462 1.515 3.462 3.463 0 1.947-1.514 3.462-3.462 3.462zm4.328-4.977c-.65-1.731-2.38-3.246-4.328-3.246-1.948 0-3.679 1.298-4.328 3.246H4.9c-.65 0-1.298-.65-1.298-1.299v-8.656c1.514 1.299 3.462 2.164 5.626 2.164 4.76 0 8.44-3.895 8.44-8.44 0-1.298-.433-2.596-.866-3.678h5.627c.649 0 1.298.65 1.298 1.298V24.32c0 .649-.65 1.298-1.299 1.298h-7.357zm16.014 4.977c-1.948 0-3.463-1.515-3.463-3.462 0-1.948 1.515-3.463 3.463-3.463 1.947 0 3.462 1.515 3.462 3.463 0 1.947-1.515 3.462-3.462 3.462zm5.41-4.76h-.866c-.65-1.948-2.38-3.247-4.328-3.247-2.164 0-3.895 1.299-4.328 3.246h-2.164c.433-.432.65-.865.65-1.514V8.954h6.708c1.947 0 2.813 1.298 2.813 1.298s-.217.433.216.866H30.22c-1.082 0-1.731.866-1.731 1.731v3.463c0 1.082.865 1.73 1.731 1.73h8.656v5.627c-.216 2.38-2.38 2.164-2.38 2.164z"/></symbol><symbol viewBox="0 0 24 20.09" id="twitter" xmlns="http://www.w3.org/2000/svg"><path d="M23.346.42c-.98.588-2.027.98-3.139 1.242A4.838 4.838 0 0016.61.092c-2.746 0-4.904 2.29-4.904 5.036 0 .392.065.785.13 1.177C7.716 6.044 4.12 4.016 1.7.943a5.466 5.466 0 00-.654 2.55c0 1.766.85 3.27 2.224 4.185-.785 0-1.57-.261-2.224-.653v.13c0 2.42 1.7 4.513 3.924 4.97-.392.131-.85.197-1.308.197-.327 0-.654 0-.915-.066.654 2.027 2.42 3.466 4.577 3.531-1.7 1.374-3.793 2.158-6.147 2.158-.392 0-.785 0-1.177-.065a13.597 13.597 0 007.52 2.289c9.09 0 13.995-7.717 13.995-14.387v-.654c.98-.72 1.831-1.57 2.485-2.616-.85.393-1.831.654-2.812.785.98-.72 1.766-1.7 2.158-2.877z"/></symbol><symbol viewBox="0 0 24.19 13.67" id="vk" xmlns="http://www.w3.org/2000/svg"><path d="M23.87 12.526c0-.066-.066-.13-.066-.13-.393-.72-1.243-1.701-2.42-2.748-.523-.523-.85-.85-.98-1.046-.262-.327-.328-.654-.197-.98.13-.262.458-.785 1.112-1.636.327-.457.588-.784.785-1.046C23.541 3.044 24.195 1.801 24 1.278l-.065-.13c-.066-.197-.197-.262-.393-.328-.196-.065-.458-.065-.785 0H18.9c-.13 0-.13.066-.13.066h-.066l-.065.065c-.066 0-.066.065-.131.13-.066.066-.066.132-.131.197-.392.98-.85 1.962-1.308 2.812-.327.523-.588.98-.85 1.373s-.458.654-.654.85l-.458.458c-.13.13-.261.13-.327.13-.065 0-.13-.064-.196-.064-.13-.066-.196-.197-.261-.327-.066-.131-.131-.262-.131-.458s-.066-.393-.066-.523V1.8c0-.261 0-.458-.065-.588 0-.131-.065-.262-.13-.393-.066-.13-.132-.261-.262-.327l-.393-.196c-.458-.13-.98-.13-1.7-.13-1.57 0-2.55.065-3.008.326C8.37.56 8.24.69 8.109.886c-.13.196-.196.261-.065.327.523.065.85.261 1.046.523l.065.13c.066.131.131.327.197.589.065.262.065.589.13.916a6.279 6.279 0 010 1.569c-.065.458-.065.785-.13.981-.066.262-.066.458-.197.589l-.13.261c0 .066-.066.066-.066.066-.13.065-.196.065-.327.065-.13 0-.261-.066-.392-.196-.196-.131-.327-.262-.523-.458a3.169 3.169 0 01-.589-.85c-.196-.393-.458-.785-.72-1.308l-.195-.392c-.131-.262-.327-.589-.524-1.047-.196-.458-.392-.85-.588-1.308-.066-.13-.196-.261-.327-.392h-.066c-.065-.065-.13-.065-.196-.13-.065 0-.196-.066-.261-.066H.85c-.393 0-.655.13-.786.261v.066C0 1.147 0 1.212 0 1.278c0 .065 0 .196.065.327a54.395 54.395 0 001.635 3.4c.589 1.112 1.112 1.962 1.504 2.616.458.654.85 1.308 1.308 1.897.458.588.72.98.916 1.111.13.197.261.262.327.393l.327.327c.196.196.523.457.85.72.392.26.785.522 1.308.85a6.105 6.105 0 001.635.653c.654.196 1.242.262 1.83.196h1.44a1 1 0 00.653-.261l.066-.066c.065-.065.065-.13.065-.261s.066-.196.066-.327c0-.327 0-.654.065-.981.065-.262.13-.523.196-.654.066-.13.196-.262.262-.392.13-.131.196-.131.196-.197.065 0 .065-.065.13-.065.197-.065.459 0 .72.196.262.196.523.458.785.72.261.261.523.588.85.98.327.327.654.654.85.785l.262.131c.196.13.392.196.654.262.261.065.523.13.719.065l3.204-.065c.327 0 .589-.066.72-.131.196-.131.261-.196.327-.327.065-.131.065-.262 0-.458 0 0 0-.13-.066-.196z"/></symbol></svg>